<svg xmlns="http://www.w3.org/2000/svg" viewBox="0 0 820 430" role="img" aria-label="Силы, действующие на брусок и доску"><defs><marker id="a" viewBox="0 0 10 10" refX="8" refY="5" markerWidth="7" markerHeight="7" orient="auto-start-reverse"><path d="M0 0L10 5L0 10z" fill="#1f2937"/></marker><style>.s{fill:none;stroke:#1f2937;stroke-width:3;stroke-linecap:round;stroke-linejoin:round}.g{fill:none;stroke:#94a3b8;stroke-width:1.4;stroke-dasharray:5 5}.t{font:24px Arial,sans-serif;fill:#1f2937}.m{font:18px Arial,sans-serif;fill:#1f2937}.f{fill:#e5e7eb;stroke:#1f2937;stroke-width:2.5}.w{fill:#fff;stroke:#1f2937;stroke-width:2.5}</style></defs>
<text class="t" x="160" y="42">Брусок</text><rect class="w" x="155" y="165" width="110" height="75"/>
<line class="s" x1="210" y1="202" x2="210" y2="85" marker-end="url(#a)"/><text class="m" x="222" y="105">N₁</text>
<line class="s" x1="210" y1="202" x2="210" y2="325" marker-end="url(#a)"/><text class="m" x="222" y="310">mg</text>
<line class="s" x1="210" y1="202" x2="90" y2="202" marker-end="url(#a)"/><text class="m" x="92" y="180">T</text>
<line class="s" x1="210" y1="202" x2="335" y2="202" marker-end="url(#a)"/><text class="m" x="280" y="180">Fтр1</text>
<text class="t" x="540" y="42">Доска</text><rect class="f" x="465" y="165" width="220" height="75"/>
<line class="s" x1="575" y1="202" x2="575" y2="82" marker-end="url(#a)"/><text class="m" x="587" y="102">N₂</text>
<line class="s" x1="548" y1="202" x2="548" y2="327" marker-end="url(#a)"/><text class="m" x="505" y="315">Mg</text>
<line class="s" x1="602" y1="202" x2="602" y2="327" marker-end="url(#a)"/><text class="m" x="614" y="315">P</text>
<line class="s" x1="520" y1="185" x2="420" y2="185" marker-end="url(#a)"/><text class="m" x="420" y="163">T</text>
<line class="s" x1="520" y1="210" x2="390" y2="210" marker-end="url(#a)"/><text class="m" x="390" y="245">Fтр2</text>
<line class="s" x1="520" y1="235" x2="375" y2="235" marker-end="url(#a)"/><text class="m" x="375" y="275">Fтр3</text>
<line class="s" x1="630" y1="202" x2="780" y2="202" marker-end="url(#a)"/><text class="m" x="748" y="180">F</text>
</svg>
